<svg width="154" height="28" viewBox="0 0 154 28" fill="none" xmlns="http://www.w3.org/2000/svg">
<path d="M14.488 18.384V22H0.92V1.936H14.2V5.392H4.76V10.128H13.016V13.424H4.76V18.384H14.488ZM20.9095 22H17.1975V6.192H20.3975L20.5575 7.792H20.6535C21.4002 7.13067 22.2002 6.65067 23.0535 6.352C23.9282 6.032 24.9522 5.872 26.1255 5.872C27.8748 5.872 29.2082 6.30933 30.1255 7.184C31.0428 8.05867 31.5015 9.34933 31.5015 11.056V22H27.7895V11.536C27.7895 10.768 27.5335 10.192 27.0215 9.808C26.5308 9.40267 25.7948 9.2 24.8135 9.2C24.1095 9.2 23.4268 9.296 22.7655 9.488C22.1042 9.65867 21.4855 9.92533 20.9095 10.288V22ZM41.7003 27.184C40.5909 27.184 39.5349 27.1093 38.5323 26.96C37.5509 26.832 36.7616 26.6507 36.1643 26.416V23.216C36.6549 23.3867 37.3909 23.5253 38.3723 23.632C39.3749 23.76 40.3669 23.824 41.3483 23.824C42.7136 23.824 43.6523 23.5787 44.1643 23.088C44.6976 22.5973 44.9749 21.7227 44.9963 20.464V19.568C44.2069 19.9947 43.3856 20.3253 42.5323 20.56C41.6789 20.7947 40.8363 20.912 40.0043 20.912C37.9349 20.912 36.4629 20.336 35.5883 19.184C34.7136 18.032 34.2763 16.1013 34.2763 13.392C34.2763 10.6827 34.8629 8.752 36.0363 7.6C37.2309 6.448 39.2363 5.872 42.0523 5.872C43.1403 5.872 44.3349 5.936 45.6363 6.064C46.9589 6.192 47.9829 6.33067 48.7083 6.48V19.344C48.7083 22.2453 48.1856 24.272 47.1403 25.424C46.0949 26.5973 44.2816 27.184 41.7003 27.184ZM42.0523 9.2C40.3243 9.2 39.2149 9.46667 38.7243 10C38.2336 10.512 37.9883 11.6427 37.9883 13.392C37.9883 15.0133 38.1909 16.1013 38.5963 16.656C39.0229 17.1893 39.9083 17.456 41.2523 17.456C41.8283 17.456 42.4363 17.392 43.0763 17.264C43.7376 17.1147 44.3776 16.9227 44.9963 16.688V9.488C44.5483 9.40267 44.0683 9.33867 43.5563 9.296C43.0656 9.232 42.5643 9.2 42.0523 9.2ZM56.0055 3.952H52.0695V0.719999H56.0055V3.952ZM55.9095 22H52.1975V6.192H55.9095V22ZM63.097 22H59.385V6.192H62.585L62.745 7.792H62.841C63.5877 7.13067 64.3877 6.65067 65.241 6.352C66.1157 6.032 67.1397 5.872 68.313 5.872C70.0623 5.872 71.3957 6.30933 72.313 7.184C73.2303 8.05867 73.689 9.34933 73.689 11.056V22H69.977V11.536C69.977 10.768 69.721 10.192 69.209 9.808C68.7183 9.40267 67.9823 9.2 67.001 9.2C66.297 9.2 65.6143 9.296 64.953 9.488C64.2917 9.65867 63.673 9.92533 63.097 10.288V22ZM89.5838 18.128V21.136C89.0504 21.456 88.2078 21.7333 87.0558 21.968C85.9251 22.1813 84.7411 22.288 83.5038 22.288C80.9864 22.288 79.1731 21.648 78.0638 20.368C76.9758 19.088 76.4318 16.976 76.4318 14.032C76.4318 11.1947 77.0078 9.12533 78.1598 7.824C79.3118 6.52267 81.1358 5.872 83.6318 5.872C86.0424 5.872 87.7491 6.37333 88.7518 7.376C89.7544 8.37867 90.2558 10.096 90.2558 12.528C90.2558 12.976 90.2451 13.392 90.2238 13.776C90.2024 14.1387 90.1598 14.6507 90.0958 15.312H80.1758C80.1971 16.6347 80.4851 17.5627 81.0398 18.096C81.6158 18.6293 82.6291 18.896 84.0798 18.896C85.0398 18.896 86.0318 18.8213 87.0558 18.672C88.0798 18.5227 88.9224 18.3413 89.5838 18.128ZM83.6318 9.104C82.3304 9.104 81.4238 9.36 80.9118 9.872C80.4211 10.384 80.1758 11.312 80.1758 12.656H86.8638V11.984C86.8424 10.896 86.5971 10.1493 86.1278 9.744C85.6584 9.31733 84.8264 9.104 83.6318 9.104ZM105.791 1.936V5.392H99.711V22H95.871V5.392H89.823V1.936H105.791ZM119.912 14.064C119.912 17.0507 119.336 19.1733 118.184 20.432C117.053 21.6693 115.112 22.288 112.36 22.288C109.565 22.288 107.602 21.68 106.472 20.464C105.341 19.2267 104.776 17.0933 104.776 14.064C104.776 11.0987 105.352 8.99733 106.504 7.76C107.656 6.50133 109.608 5.872 112.36 5.872C115.133 5.872 117.085 6.49067 118.216 7.728C119.346 8.944 119.912 11.056 119.912 14.064ZM108.488 14.032C108.488 15.9947 108.733 17.2853 109.224 17.904C109.714 18.5227 110.76 18.832 112.36 18.832C113.917 18.832 114.941 18.5227 115.432 17.904C115.944 17.264 116.2 15.9733 116.2 14.032C116.2 12.048 115.954 10.7467 115.464 10.128C114.994 9.50933 113.96 9.2 112.36 9.2C110.781 9.2 109.736 9.52 109.224 10.16C108.733 10.8 108.488 12.0907 108.488 14.032ZM126.472 22H122.76V6.192H125.96L126.12 7.792H126.216C126.963 7.13067 127.763 6.65067 128.616 6.352C129.491 6.032 130.515 5.872 131.688 5.872C133.437 5.872 134.771 6.30933 135.688 7.184C136.605 8.05867 137.064 9.34933 137.064 11.056V22H133.352V11.536C133.352 10.768 133.096 10.192 132.584 9.808C132.093 9.40267 131.357 9.2 130.376 9.2C129.672 9.2 128.989 9.296 128.328 9.488C127.667 9.65867 127.048 9.92533 126.472 10.288V22ZM152.959 18.128V21.136C152.425 21.456 151.583 21.7333 150.431 21.968C149.3 22.1813 148.116 22.288 146.879 22.288C144.361 22.288 142.548 21.648 141.439 20.368C140.351 19.088 139.807 16.976 139.807 14.032C139.807 11.1947 140.383 9.12533 141.535 7.824C142.687 6.52267 144.511 5.872 147.007 5.872C149.417 5.872 151.124 6.37333 152.127 7.376C153.129 8.37867 153.631 10.096 153.631 12.528C153.631 12.976 153.62 13.392 153.599 13.776C153.577 14.1387 153.535 14.6507 153.471 15.312H143.551C143.572 16.6347 143.86 17.5627 144.415 18.096C144.991 18.6293 146.004 18.896 147.455 18.896C148.415 18.896 149.407 18.8213 150.431 18.672C151.455 18.5227 152.297 18.3413 152.959 18.128ZM147.007 9.104C145.705 9.104 144.799 9.36 144.287 9.872C143.796 10.384 143.551 11.312 143.551 12.656H150.239V11.984C150.217 10.896 149.972 10.1493 149.503 9.744C149.033 9.31733 148.201 9.104 147.007 9.104Z" fill="#DA1F26"/>
</svg>
