<svg xmlns="http://www.w3.org/2000/svg" width="202.52" height="85" viewBox="0 0 202.52 85">
  <g id="Group_349" data-name="Group 349" transform="translate(-96.067 -201.25)">
    <path id="Path_282" data-name="Path 282" d="M2.067,37.32,10.891,36.2V-30.591L2.514-32.155v-6.813h16.2q2.122,0,4.691-.112T27.31-39.3q5.808-.447,9.606-.447,11.5,0,18.43,2.346T65.4-30.256q3.127,4.8,3.127,12.622a26.407,26.407,0,0,1-4.133,14.3A21.039,21.039,0,0,1,52.441,5.71a18.681,18.681,0,0,1,7.93,6.925A102.24,102.24,0,0,1,67.744,25.7q2.792,5.473,4.3,7.875T75,36.314l3.686,1.117v6.59H59.7q-1.787,0-3.742-3.63a121.415,121.415,0,0,1-5.082-11.449q-3.686-9.159-6.367-14.3t-5.7-6.367H27.31V36.2L37.586,37.32v6.7H2.067ZM37.586,1.465a11.9,11.9,0,0,0,9.941-4.579Q51.1-7.694,51.1-16.853q0-8.154-3.518-12.063T35.464-32.825a42.641,42.641,0,0,0-5.306.279q-2.178.279-2.848.279V1.242a54.312,54.312,0,0,0,6.478.223Z" transform="translate(94 241)" fill="#f12d2d"/>
    <path id="Path_283" data-name="Path 283" d="M31.06,34.685q-14.744,0-21.948-8.656T1.908,2.4A38.052,38.052,0,0,1,5.65-15.019,26.466,26.466,0,0,1,16.2-26.3,31.082,31.082,0,0,1,31.954-30.21q11.17,0,17.2,5.864t6.255,16.7A49,49,0,0,1,54.516,3.3h-36.3q.447,10.164,4.8,15.8t12.4,5.641a30.013,30.013,0,0,0,8.991-1.452,24.38,24.38,0,0,0,7.316-3.463l2.792,6.143q-3.016,3.239-9.773,5.976A36.174,36.174,0,0,1,31.06,34.685ZM39.773-3.4Q40-6.531,40-8.206q0-14.855-9.941-14.855a9.732,9.732,0,0,0-8.489,4.356q-3.016,4.356-3.351,15.3Z" transform="translate(173.907 251.565)" fill="#f12d2d"/>
    <path id="Path_284" data-name="Path 284" d="M-.318-29.468H29.17v6.478L21.8-21.538,31.962,8.843l3.574,11.84,3.016-11.5,9.941-30.716L41.456-22.99v-6.478H66.029v6.478l-5.808,1.452L39.445,33.528H26.489L4.261-21.538-.318-22.99Z" transform="translate(232.558 252.387)" fill="#f12d2d"/>
  </g>
</svg>
